<?xml version="1.0" encoding="UTF-8"?>
<!DOCTYPE svg PUBLIC "-//W3C//DTD SVG 1.1//EN" "http://www.w3.org/Graphics/SVG/1.1/DTD/svg11.dtd">
<svg xmlns="http://www.w3.org/2000/svg" version="1.1" width="180px" height="180px" style="shape-rendering:geometricPrecision; text-rendering:geometricPrecision; image-rendering:optimizeQuality; fill-rule:evenodd; clip-rule:evenodd" xmlns:xlink="http://www.w3.org/1999/xlink">
<g><path style="opacity:1" fill="#1c1a08" d="M 77.5,9.5 C 94.0223,8.07486 110.022,10.2415 125.5,16C 126.458,20.6144 124.958,24.4477 121,27.5C 120.163,29.8212 119.83,32.1546 120,34.5C 126.96,39.7916 133.627,45.4583 140,51.5C 142.911,57.1445 144.578,63.1445 145,69.5C 145.667,96.1667 145.667,122.833 145,149.5C 143.036,165.799 133.869,173.966 117.5,174C 97.0438,176.603 76.7105,175.937 56.5,172C 49.0467,171.209 43.88,167.376 41,160.5C 38.6929,152.324 37.3596,143.991 37,135.5C 36.608,118.997 36.108,102.497 35.5,86C 34.4693,73.1731 37.3026,61.3398 44,50.5C 48.9695,43.3641 54.8029,37.0308 61.5,31.5C 60.477,27.9226 58.977,24.5893 57,21.5C 56.3333,19.5 56.3333,17.5 57,15.5C 63.6252,12.4174 70.4585,10.4174 77.5,9.5 Z"/></g>
<g><path style="opacity:1" fill="#544914" d="M 95.5,17.5 C 92.5431,16.4737 89.3765,15.807 86,15.5C 76.8862,15.4451 68.3862,17.4451 60.5,21.5C 59.2121,19.9652 59.2121,18.2985 60.5,16.5C 65.3106,14.5474 70.3106,13.3808 75.5,13C 91.8347,11.4079 107.835,12.9079 123.5,17.5C 123.853,19.6348 123.02,20.9681 121,21.5C 115.058,18.9229 108.892,18.0895 102.5,19C 108.703,19.7548 114.703,21.2548 120.5,23.5C 120.167,24.5 119.5,25.1667 118.5,25.5C 109.843,22.0696 100.843,20.7363 91.5,21.5C 81.8195,20.7555 72.4861,22.0888 63.5,25.5C 62.1667,24.8333 62.1667,24.1667 63.5,23.5C 65.7954,22.5682 68.1287,21.7348 70.5,21C 79.5554,19.8932 87.8887,18.7266 95.5,17.5 Z"/></g>
<g><path style="opacity:1" fill="#847427" d="M 95.5,17.5 C 83.5511,16.7403 71.8845,18.0737 60.5,21.5C 68.3862,17.4451 76.8862,15.4451 86,15.5C 89.3765,15.807 92.5431,16.4737 95.5,17.5 Z"/></g>
<g><path style="opacity:1" fill="#c6c23c" d="M 141.5,75.5 C 140.669,87.6599 140.169,99.9932 140,112.5C 139.829,103.99 139.329,95.6566 138.5,87.5C 138.542,76.8336 136.708,66.5002 133,56.5C 130.907,51.8843 127.407,49.551 122.5,49.5C 122.366,51.2915 122.699,52.9582 123.5,54.5C 122.504,54.5858 121.671,54.2524 121,53.5C 119.656,49.1481 116.823,45.9815 112.5,44C 96.0898,36.1934 80.4231,37.0267 65.5,46.5C 65.8453,43.512 64.512,42.1787 61.5,42.5C 58.0322,43.4475 55.1988,45.4475 53,48.5C 49.1995,55.0702 46.6995,62.0702 45.5,69.5C 44.6862,71.631 44.1862,73.9644 44,76.5C 43.3333,73.8333 42.6667,73.8333 42,76.5C 41.6667,75.5 41.3333,74.5 41,73.5C 40.6667,73.8333 40.3333,74.1667 40,74.5C 39.5001,85.8284 39.3335,97.1618 39.5,108.5C 38.3405,97.0073 38.1739,85.3407 39,73.5C 42.0374,57.0888 50.3708,44.0888 64,34.5C 63.6039,30.5433 65.1039,27.71 68.5,26C 84.2754,22.3966 99.9421,22.7299 115.5,27C 115.083,30.8237 115.583,34.6571 117,38.5C 124.658,42.6537 131.325,47.9871 137,54.5C 140.351,61.0899 141.851,68.0899 141.5,75.5 Z"/></g>
<g><path style="opacity:1" fill="#f3f195" d="M 82.5,29.5 C 92.9285,29.2043 103.262,29.8709 113.5,31.5C 113.5,32.5 113.5,33.5 113.5,34.5C 99.6595,31.8924 85.8262,31.8924 72,34.5C 70,33.8333 70,33.1667 72,32.5C 75.6449,31.5514 79.1449,30.5514 82.5,29.5 Z"/></g>
<g><path style="opacity:1" fill="#fbfaa5" d="M 75.5,25.5 C 85.5056,25.3335 95.5056,25.5002 105.5,26C 107.256,26.2022 108.922,26.7022 110.5,27.5C 100.348,26.4808 90.0144,26.4808 79.5,27.5C 77.6672,27.4146 76.3339,26.7479 75.5,25.5 Z"/></g>
<g><path style="opacity:1" fill="#f4f3d9" d="M 65.5,46.5 C 58.0187,51.0063 53.6854,57.673 52.5,66.5C 51.4478,69.89 50.4478,73.39 49.5,77C 48.2161,77.6838 47.0495,77.5171 46,76.5C 45.5034,74.1902 45.3367,71.8568 45.5,69.5C 46.6995,62.0702 49.1995,55.0702 53,48.5C 55.1988,45.4475 58.0322,43.4475 61.5,42.5C 64.512,42.1787 65.8453,43.512 65.5,46.5 Z"/></g>
<g><path style="opacity:1" fill="#cfcb44" d="M 123.5,54.5 C 127.152,58.8077 129.485,63.8077 130.5,69.5C 130.799,71.604 130.466,73.604 129.5,75.5C 125.934,68.4386 121.101,62.4386 115,57.5C 114.667,57.8333 114.333,58.1667 114,58.5C 111.833,56.3333 109.667,54.1667 107.5,52C 106.563,51.3083 105.897,51.475 105.5,52.5C 91.7848,44.5028 79.4515,46.1695 68.5,57.5C 61.8936,59.5896 57.0603,64.2563 54,71.5C 53.8019,69.6183 53.3019,67.9516 52.5,66.5C 53.6854,57.673 58.0187,51.0063 65.5,46.5C 80.4231,37.0267 96.0898,36.1934 112.5,44C 116.823,45.9815 119.656,49.1481 121,53.5C 121.671,54.2524 122.504,54.5858 123.5,54.5 Z"/></g>
<g><path style="opacity:1" fill="#d2ce47" d="M 68.5,57.5 C 60.6863,67.4715 55.853,78.8048 54,91.5C 52.5815,97.0901 51.7482,102.757 51.5,108.5C 50.783,115.867 49.783,123.2 48.5,130.5C 48.4746,120.797 48.6412,111.13 49,101.5C 47.4126,100.273 46.0793,100.606 45,102.5C 44.1553,104.611 43.322,106.611 42.5,108.5C 41.7953,113.926 41.1287,119.926 40.5,126.5C 39.6365,120.545 39.3032,114.545 39.5,108.5C 39.3335,97.1618 39.5001,85.8284 40,74.5C 40.3333,74.1667 40.6667,73.8333 41,73.5C 41.3333,74.5 41.6667,75.5 42,76.5C 42.6667,73.8333 43.3333,73.8333 44,76.5C 44.1862,73.9644 44.6862,71.631 45.5,69.5C 45.3367,71.8568 45.5034,74.1902 46,76.5C 47.0495,77.5171 48.2161,77.6838 49.5,77C 50.4478,73.39 51.4478,69.89 52.5,66.5C 53.3019,67.9516 53.8019,69.6183 54,71.5C 57.0603,64.2563 61.8936,59.5896 68.5,57.5 Z"/></g>
<g><path style="opacity:1" fill="#f5f4da" d="M 138.5,87.5 C 138.666,96.5062 138.5,105.506 138,114.5C 136.667,115.833 135.333,115.833 134,114.5C 133.963,99.2606 132.796,84.2606 130.5,69.5C 129.485,63.8077 127.152,58.8077 123.5,54.5C 122.699,52.9582 122.366,51.2915 122.5,49.5C 127.407,49.551 130.907,51.8843 133,56.5C 136.708,66.5002 138.542,76.8336 138.5,87.5 Z"/></g>
<g><path style="opacity:1" fill="#d2ce48" d="M 105.5,52.5 C 105.897,51.475 106.563,51.3083 107.5,52C 109.667,54.1667 111.833,56.3333 114,58.5C 114.333,58.1667 114.667,57.8333 115,57.5C 121.101,62.4386 125.934,68.4386 129.5,75.5C 130.466,73.604 130.799,71.604 130.5,69.5C 132.796,84.2606 133.963,99.2606 134,114.5C 135.333,115.833 136.667,115.833 138,114.5C 138.5,105.506 138.666,96.5062 138.5,87.5C 139.329,95.6566 139.829,103.99 140,112.5C 140.169,99.9932 140.669,87.6599 141.5,75.5C 141.5,99.8333 141.5,124.167 141.5,148.5C 140.67,139.676 140.17,130.676 140,121.5C 136.145,133.381 129.645,143.547 120.5,152C 118.5,152.333 116.5,152.667 114.5,153C 119.047,153.429 123.381,154.262 127.5,155.5C 104.889,152.449 82.2224,151.783 59.5,153.5C 53.3803,151.64 50.5469,147.307 51,140.5C 50.5172,141.448 50.3505,142.448 50.5,143.5C 49.1045,139.409 48.4379,135.076 48.5,130.5C 49.783,123.2 50.783,115.867 51.5,108.5C 51.3339,114.176 51.5006,119.843 52,125.5C 55.2814,130.923 58.1147,130.59 60.5,124.5C 60.9406,131.648 62.1073,138.648 64,145.5C 65.0616,146.899 66.395,147.899 68,148.5C 70.9356,146.624 73.4356,144.29 75.5,141.5C 77.5644,144.29 80.0644,146.624 83,148.5C 86.0138,146.481 88.6804,144.148 91,141.5C 92.5584,143.958 94.5584,145.958 97,147.5C 99.654,146.179 101.654,144.179 103,141.5C 104.62,143.241 106.12,145.075 107.5,147C 108.833,147.667 110.167,147.667 111.5,147C 116.578,139.269 119.578,130.769 120.5,121.5C 123.028,122.023 125.361,123.023 127.5,124.5C 129.778,124.219 130.945,122.885 131,120.5C 132.295,98.0111 126.295,77.6778 113,59.5C 110.63,56.9614 108.13,54.6281 105.5,52.5 Z"/></g>
<g><path style="opacity:1" fill="#f3f2d4" d="M 48.5,130.5 C 48.4379,135.076 49.1045,139.409 50.5,143.5C 50.59,145.696 50.9233,147.863 51.5,150C 51.0305,153.822 49.5305,154.322 47,151.5C 44.9035,145.686 43.5702,139.686 43,133.5C 42.5003,125.173 42.3336,116.84 42.5,108.5C 43.322,106.611 44.1553,104.611 45,102.5C 46.0793,100.606 47.4126,100.273 49,101.5C 48.6412,111.13 48.4746,120.797 48.5,130.5 Z"/></g>
<g><path style="opacity:1" fill="#3ca452" d="M 105.5,52.5 C 108.13,54.6281 110.63,56.9614 113,59.5C 126.295,77.6778 132.295,98.0111 131,120.5C 130.945,122.885 129.778,124.219 127.5,124.5C 125.361,123.023 123.028,122.023 120.5,121.5C 119.578,130.769 116.578,139.269 111.5,147C 110.167,147.667 108.833,147.667 107.5,147C 106.12,145.075 104.62,143.241 103,141.5C 101.654,144.179 99.654,146.179 97,147.5C 94.5584,145.958 92.5584,143.958 91,141.5C 88.6804,144.148 86.0138,146.481 83,148.5C 80.0644,146.624 77.5644,144.29 75.5,141.5C 73.4356,144.29 70.9356,146.624 68,148.5C 66.395,147.899 65.0616,146.899 64,145.5C 62.1073,138.648 60.9406,131.648 60.5,124.5C 58.1147,130.59 55.2814,130.923 52,125.5C 51.5006,119.843 51.3339,114.176 51.5,108.5C 51.7482,102.757 52.5815,97.0901 54,91.5C 55.853,78.8048 60.6863,67.4715 68.5,57.5C 79.4515,46.1695 91.7848,44.5028 105.5,52.5 Z"/></g>
<g><path style="opacity:1" fill="#b1fc4a" d="M 118.5,121.5 C 117.453,130.316 114.453,138.316 109.5,145.5C 107.824,142.992 105.658,140.992 103,139.5C 100.491,140.829 98.6578,142.829 97.5,145.5C 95.9596,143.613 94.2929,141.78 92.5,140C 91.1667,139.333 89.8333,139.333 88.5,140C 87.3206,142.513 85.4873,144.346 83,145.5C 80.702,143.223 78.202,141.223 75.5,139.5C 72.5792,141.297 70.0792,143.63 68,146.5C 66.779,145.728 65.779,144.728 65,143.5C 63.9502,138.552 63.4502,133.552 63.5,128.5C 64.3019,127.048 64.8019,125.382 65,123.5C 80.2855,138.957 95.9522,139.29 112,124.5C 113.667,122.167 115.333,119.833 117,117.5C 117.21,119.058 117.71,120.391 118.5,121.5 Z"/></g>
<g><path style="opacity:1" fill="#c0fe60" d="M 60.5,80.5 C 61.0653,76.4632 62.3987,72.7966 64.5,69.5C 65.2216,69.9175 65.7216,70.5842 66,71.5C 76.6247,55.9504 89.7914,53.4504 105.5,64C 117.102,77.5468 119.602,92.7134 113,109.5C 99.644,130.132 84.3107,131.799 67,114.5C 61.1259,103.772 58.9593,92.4391 60.5,80.5 Z"/></g>
<g><path style="opacity:1" fill="#cdfd73" d="M 101.5,70.5 C 94.8638,71.0218 94.8638,71.8551 101.5,73C 103.037,74.7073 104.704,76.2073 106.5,77.5C 106.389,78.1174 106.056,78.6174 105.5,79C 106.848,80.5741 107.514,82.4075 107.5,84.5C 105.158,90.6913 104.325,97.0247 105,103.5C 100.295,107.936 94.7955,110.936 88.5,112.5C 81.5407,111.607 76.7074,107.94 74,101.5C 72.4826,95.9198 72.1492,90.2531 73,84.5C 73.2355,82.8807 74.0689,81.8807 75.5,81.5C 75.5,83.1667 75.5,84.8333 75.5,86.5C 74.9569,86.56 74.6236,86.8933 74.5,87.5C 77.5611,90.0482 79.5611,93.2148 80.5,97C 77.6384,98.7859 76.9717,101.119 78.5,104C 84.8578,107.469 90.8578,108.302 96.5,106.5C 98.5976,105.065 100.931,103.898 103.5,103C 104.774,102.023 104.774,101.189 103.5,100.5C 100.995,99.5033 98.3283,99.5033 95.5,100.5C 95.7947,96.7721 96.4614,93.1054 97.5,89.5C 98.1667,90.1667 98.8333,90.8333 99.5,91.5C 100.107,91.3764 100.44,91.0431 100.5,90.5C 104.305,90.3575 105.971,88.3575 105.5,84.5C 105.824,80.1577 103.824,78.1577 99.5,78.5C 95.7738,77.8088 92.1071,76.8088 88.5,75.5C 86.9411,76.0736 85.4411,76.7402 84,77.5C 82.0565,76.193 80.2232,76.193 78.5,77.5C 77.1667,78.1667 76.1667,79.1667 75.5,80.5C 74.9569,80.44 74.6236,80.1067 74.5,79.5C 75.3128,78.1861 76.3128,77.0195 77.5,76C 76.5842,75.7216 75.9175,75.2216 75.5,74.5C 77.6979,73.8347 80.0312,73.1681 82.5,72.5C 78.7206,69.8423 75.0539,70.1757 71.5,73.5C 71.5,73.1667 71.5,72.8333 71.5,72.5C 71.8333,71.5 72.5,70.8333 73.5,70.5C 83.0524,66.522 92.3857,66.522 101.5,70.5 Z"/></g>
<g><path style="opacity:1" fill="#36a250" d="M 101.5,70.5 C 105.342,71.6237 107.009,73.957 106.5,77.5C 104.704,76.2073 103.037,74.7073 101.5,73C 94.8638,71.8551 94.8638,71.0218 101.5,70.5 Z"/></g>
<g><path style="opacity:1" fill="#c6fe68" d="M 71.5,72.5 C 71.5,72.8333 71.5,73.1667 71.5,73.5C 71.5,74.5 71.5,75.5 71.5,76.5C 73.1993,76.4729 74.5326,75.8062 75.5,74.5C 75.9175,75.2216 76.5842,75.7216 77.5,76C 76.3128,77.0195 75.3128,78.1861 74.5,79.5C 74.6236,80.1067 74.9569,80.44 75.5,80.5C 75.5,80.8333 75.5,81.1667 75.5,81.5C 74.0689,81.8807 73.2355,82.8807 73,84.5C 72.1492,90.2531 72.4826,95.9198 74,101.5C 76.7074,107.94 81.5407,111.607 88.5,112.5C 94.7955,110.936 100.295,107.936 105,103.5C 104.325,97.0247 105.158,90.6913 107.5,84.5C 107.514,82.4075 106.848,80.5741 105.5,79C 106.056,78.6174 106.389,78.1174 106.5,77.5C 107.009,73.957 105.342,71.6237 101.5,70.5C 92.3857,66.522 83.0524,66.522 73.5,70.5C 75.2055,66.6213 78.2055,64.1213 82.5,63C 98.9382,60.9786 108.772,68.1453 112,84.5C 114.674,97.9993 110.841,109.166 100.5,118C 83.6616,125.001 72.1616,119.834 66,102.5C 63.5887,93.2574 64.2554,84.2574 68,75.5C 68.7589,73.9371 69.9256,72.9371 71.5,72.5 Z"/></g>
<g><path style="opacity:1" fill="#d4fa7e" d="M 99.5,78.5 C 96.6333,82.7667 96.9667,86.7667 100.5,90.5C 100.44,91.0431 100.107,91.3764 99.5,91.5C 98.8333,90.8333 98.1667,90.1667 97.5,89.5C 96.4614,93.1054 95.7947,96.7721 95.5,100.5C 98.3283,99.5033 100.995,99.5033 103.5,100.5C 99.4635,101.851 95.2968,102.517 91,102.5C 86.7532,102.736 82.9199,101.902 79.5,100C 78.5494,100.718 78.3828,101.551 79,102.5C 84.3143,105.952 90.1477,107.285 96.5,106.5C 90.8578,108.302 84.8578,107.469 78.5,104C 76.9717,101.119 77.6384,98.7859 80.5,97C 79.5611,93.2148 77.5611,90.0482 74.5,87.5C 74.6236,86.8933 74.9569,86.56 75.5,86.5C 77.7378,91.1067 80.2378,91.4401 83,87.5C 83.6667,84.8333 83.6667,82.1667 83,79.5C 81.8904,77.9632 80.3904,77.2965 78.5,77.5C 80.2232,76.193 82.0565,76.193 84,77.5C 85.4411,76.7402 86.9411,76.0736 88.5,75.5C 92.1071,76.8088 95.7738,77.8088 99.5,78.5 Z"/></g>
<g><path style="opacity:1" fill="#0c4523" d="M 99.5,78.5 C 103.824,78.1577 105.824,80.1577 105.5,84.5C 105.971,88.3575 104.305,90.3575 100.5,90.5C 96.9667,86.7667 96.6333,82.7667 99.5,78.5 Z"/></g>
<g><path style="opacity:1" fill="#0d4522" d="M 78.5,77.5 C 80.3904,77.2965 81.8904,77.9632 83,79.5C 83.6667,82.1667 83.6667,84.8333 83,87.5C 80.2378,91.4401 77.7378,91.1067 75.5,86.5C 75.5,84.8333 75.5,83.1667 75.5,81.5C 75.5,81.1667 75.5,80.8333 75.5,80.5C 76.1667,79.1667 77.1667,78.1667 78.5,77.5 Z"/></g>
<g><path style="opacity:1" fill="#3da651" d="M 75.5,74.5 C 74.5326,75.8062 73.1993,76.4729 71.5,76.5C 71.5,75.5 71.5,74.5 71.5,73.5C 75.0539,70.1757 78.7206,69.8423 82.5,72.5C 80.0312,73.1681 77.6979,73.8347 75.5,74.5 Z"/></g>
<g><path style="opacity:1" fill="#b8fc56" d="M 118.5,121.5 C 117.71,120.391 117.21,119.058 117,117.5C 115.333,119.833 113.667,122.167 112,124.5C 95.9522,139.29 80.2855,138.957 65,123.5C 64.8019,125.382 64.3019,127.048 63.5,128.5C 62.8347,121.857 62.3347,115.191 62,108.5C 61.5008,113.155 61.3342,117.821 61.5,122.5C 60.448,122.351 59.448,122.517 58.5,123C 57.8448,124.487 56.8448,125.653 55.5,126.5C 54.8076,125.975 54.3076,125.308 54,124.5C 52.8229,109.213 54.9896,94.5464 60.5,80.5C 58.9593,92.4391 61.1259,103.772 67,114.5C 84.3107,131.799 99.644,130.132 113,109.5C 119.602,92.7134 117.102,77.5468 105.5,64C 89.7914,53.4504 76.6247,55.9504 66,71.5C 65.7216,70.5842 65.2216,69.9175 64.5,69.5C 73.3312,50.2785 86.9978,45.7785 105.5,56C 122.75,75.0781 129.916,97.2448 127,122.5C 125.974,119.307 123.808,117.974 120.5,118.5C 120.665,115.15 120.498,111.817 120,108.5C 119.631,112.863 119.131,117.196 118.5,121.5 Z"/></g>
<g><path style="opacity:1" fill="#1e4f27" d="M 103.5,100.5 C 104.774,101.189 104.774,102.023 103.5,103C 100.931,103.898 98.5976,105.065 96.5,106.5C 90.1477,107.285 84.3143,105.952 79,102.5C 78.3828,101.551 78.5494,100.718 79.5,100C 82.9199,101.902 86.7532,102.736 91,102.5C 95.2968,102.517 99.4635,101.851 103.5,100.5 Z"/></g>
<g><path style="opacity:1" fill="#c7c33c" d="M 42.5,108.5 C 42.3336,116.84 42.5003,125.173 43,133.5C 43.5702,139.686 44.9035,145.686 47,151.5C 49.5305,154.322 51.0305,153.822 51.5,150C 50.9233,147.863 50.59,145.696 50.5,143.5C 50.3505,142.448 50.5172,141.448 51,140.5C 50.5469,147.307 53.3803,151.64 59.5,153.5C 50.9529,154.138 49.6196,157.305 55.5,163C 80.1545,170.272 104.821,170.272 129.5,163C 117.872,163.969 106.206,164.802 94.5,165.5C 85.4843,165.285 76.4843,164.785 67.5,164C 63.7235,163.408 60.0569,162.408 56.5,161C 53.8333,159.333 53.8333,157.667 56.5,156C 80.3018,153.437 103.968,154.27 127.5,158.5C 131.473,157.476 131.473,156.476 127.5,155.5C 123.381,154.262 119.047,153.429 114.5,153C 116.5,152.667 118.5,152.333 120.5,152C 129.645,143.547 136.145,133.381 140,121.5C 140.17,130.676 140.67,139.676 141.5,148.5C 140.568,153.793 138.735,158.793 136,163.5C 130.1,168.356 123.266,170.856 115.5,171C 98.1276,171.912 80.7942,171.579 63.5,170C 56.6895,169.069 50.8561,166.236 46,161.5C 41.9079,150.203 40.0746,138.537 40.5,126.5C 41.1287,119.926 41.7953,113.926 42.5,108.5 Z"/></g>
<g><path style="opacity:1" fill="#fbfaa8" d="M 127.5,155.5 C 131.473,156.476 131.473,157.476 127.5,158.5C 103.968,154.27 80.3018,153.437 56.5,156C 53.8333,157.667 53.8333,159.333 56.5,161C 60.0569,162.408 63.7235,163.408 67.5,164C 76.4843,164.785 85.4843,165.285 94.5,165.5C 106.206,164.802 117.872,163.969 129.5,163C 104.821,170.272 80.1545,170.272 55.5,163C 49.6196,157.305 50.9529,154.138 59.5,153.5C 82.2224,151.783 104.889,152.449 127.5,155.5 Z"/></g>
</svg>
