<?xml version="1.0" encoding="UTF-8"?>
<!DOCTYPE svg PUBLIC "-//W3C//DTD SVG 1.1//EN" "http://www.w3.org/Graphics/SVG/1.1/DTD/svg11.dtd">
<svg xmlns="http://www.w3.org/2000/svg" version="1.1" width="180px" height="180px" style="shape-rendering:geometricPrecision; text-rendering:geometricPrecision; image-rendering:optimizeQuality; fill-rule:evenodd; clip-rule:evenodd" xmlns:xlink="http://www.w3.org/1999/xlink">
<g><path style="opacity:0.997" fill="#feed00" d="M -0.5,-0.5 C 59.5,-0.5 119.5,-0.5 179.5,-0.5C 179.5,59.5 179.5,119.5 179.5,179.5C 119.5,179.5 59.5,179.5 -0.5,179.5C -0.5,119.5 -0.5,59.5 -0.5,-0.5 Z"/></g>
<g><path style="opacity:1" fill="#171405" d="M 77.5,9.5 C 93.929,8.62017 109.929,10.7868 125.5,16C 126.476,18.1469 126.309,20.3136 125,22.5C 121.631,25.3772 119.797,29.0438 119.5,33.5C 126.013,39.029 132.513,44.6956 139,50.5C 142.378,55.6799 144.378,61.3466 145,67.5C 145.667,94.5 145.667,121.5 145,148.5C 143.788,154.925 141.455,160.925 138,166.5C 136.786,168.049 135.286,169.215 133.5,170C 127.332,172.125 120.999,173.459 114.5,174C 96.4712,174.866 78.4712,174.533 60.5,173C 54.216,172.025 48.716,169.525 44,165.5C 40.4447,158.964 38.4447,151.964 38,144.5C 36.9891,124.174 36.1558,103.841 35.5,83.5C 35.2373,62.3587 43.7373,45.6921 61,33.5C 61.3003,28.7495 59.9669,24.4162 57,20.5C 56.0799,17.6917 56.9133,15.5251 59.5,14C 65.6239,12.469 71.6239,10.969 77.5,9.5 Z"/></g>
<g><path style="opacity:1" fill="#5a4f17" d="M 75.5,12.5 C 91.8367,11.4072 107.837,13.0739 123.5,17.5C 123.853,19.6348 123.02,20.9681 121,21.5C 115.058,18.9229 108.892,18.0895 102.5,19C 108.703,19.7548 114.703,21.2548 120.5,23.5C 120.167,24.5 119.5,25.1667 118.5,25.5C 109.843,22.0696 100.843,20.7363 91.5,21.5C 81.8195,20.7555 72.4861,22.0888 63.5,25.5C 62.1667,24.8333 62.1667,24.1667 63.5,23.5C 65.7954,22.5682 68.1287,21.7348 70.5,21C 79.2817,20.134 87.9483,19.134 96.5,18C 89.8333,17.3333 83.1667,17.3333 76.5,18C 70.7787,19.1107 65.112,20.2774 59.5,21.5C 59.2148,19.712 59.5481,18.0453 60.5,16.5C 65.5024,14.6681 70.5024,13.3347 75.5,12.5 Z"/></g>
<g><path style="opacity:1" fill="#cdc942" d="M 77.5,23.5 C 87.1724,23.3335 96.8391,23.5002 106.5,24C 109.5,25 112.5,26 115.5,27C 115.083,30.8237 115.583,34.6571 117,38.5C 122.762,41.9637 128.262,45.7971 133.5,50C 137.753,54.6742 140.253,60.1742 141,66.5C 141.667,95.1667 141.667,123.833 141,152.5C 139.607,156.286 137.941,159.952 136,163.5C 130.1,168.356 123.266,170.856 115.5,171C 100.167,171.667 84.8333,171.667 69.5,171C 62.4647,170.21 55.798,168.21 49.5,165C 47.6217,163.457 46.1217,161.624 45,159.5C 43.2386,153.6 41.9053,147.6 41,141.5C 40.4441,130.493 39.7774,119.493 39,108.5C 38.0967,95.1189 38.43,81.7855 40,68.5C 44.0885,54.4106 52.0885,43.0772 64,34.5C 63.6039,30.5433 65.1039,27.71 68.5,26C 71.678,25.3405 74.678,24.5072 77.5,23.5 Z"/></g>
<g><path style="opacity:1" fill="#f5f4db" d="M 122.5,49.5 C 126.664,49.1429 129.831,50.8095 132,54.5C 137.27,67.9894 139.437,81.9894 138.5,96.5C 138.333,102.5 138.167,108.5 138,114.5C 136.667,115.833 135.333,115.833 134,114.5C 133.963,99.4289 132.963,84.4289 131,69.5C 129.393,63.6192 126.726,58.2859 123,53.5C 122.51,52.2068 122.343,50.8734 122.5,49.5 Z"/></g>
<g><path style="opacity:1" fill="#f4f3d9" d="M 58.5,42.5 C 60.5273,42.3379 62.5273,42.5045 64.5,43C 65.0219,43.5613 65.3552,44.228 65.5,45C 56.238,53.3586 51.0714,63.8586 50,76.5C 48.6667,77.8333 47.3333,77.8333 46,76.5C 45.1233,63.2955 49.2899,51.9621 58.5,42.5 Z"/></g>
<g><path style="opacity:1" fill="#f3f195" d="M 82.5,29.5 C 92.9285,29.2043 103.262,29.8709 113.5,31.5C 113.5,32.5 113.5,33.5 113.5,34.5C 99.6595,31.8924 85.8262,31.8924 72,34.5C 70,33.8333 70,33.1667 72,32.5C 75.6449,31.5514 79.1449,30.5514 82.5,29.5 Z"/></g>
<g><path style="opacity:1" fill="#fbfaa5" d="M 75.5,25.5 C 85.5056,25.3335 95.5056,25.5002 105.5,26C 107.256,26.2022 108.922,26.7022 110.5,27.5C 100.348,26.4808 90.0144,26.4808 79.5,27.5C 77.6672,27.4146 76.3339,26.7479 75.5,25.5 Z"/></g>
<g><path style="opacity:1" fill="#3da552" d="M 83.5,47.5 C 100.51,46.6702 112.51,54.0036 119.5,69.5C 126.696,82.7868 130.696,96.9535 131.5,112C 131.69,116.194 131.023,120.194 129.5,124C 128.167,124.667 126.833,124.667 125.5,124C 124.347,122.117 122.681,121.284 120.5,121.5C 119.512,129.965 117.012,137.965 113,145.5C 112.196,146.804 111.029,147.471 109.5,147.5C 106.698,146.272 104.531,144.272 103,141.5C 101.654,144.179 99.654,146.179 97,147.5C 94.5584,145.958 92.5584,143.958 91,141.5C 88.6804,144.148 86.0138,146.481 83,148.5C 80.0644,146.624 77.5644,144.29 75.5,141.5C 73.393,143.53 71.393,145.697 69.5,148C 67.0966,148.63 65.2633,147.797 64,145.5C 62.1073,138.648 60.9406,131.648 60.5,124.5C 59.376,125.914 58.376,127.414 57.5,129C 55.6332,129.711 54.1332,129.211 53,127.5C 49.4696,103.152 54.1363,80.4854 67,59.5C 71.8637,54.4468 77.3637,50.4468 83.5,47.5 Z"/></g>
<g><path style="opacity:1" fill="#c4fe66" d="M 60.5,80.5 C 61.0653,76.4632 62.3987,72.7966 64.5,69.5C 65.2216,69.9175 65.7216,70.5842 66,71.5C 76.6247,55.9504 89.7914,53.4504 105.5,64C 117.102,77.5468 119.602,92.7134 113,109.5C 99.644,130.132 84.3107,131.799 67,114.5C 61.1259,103.772 58.9593,92.4391 60.5,80.5 Z"/></g>
<g><path style="opacity:1" fill="#d0fb77" d="M 101.5,73.5 C 103.167,74.8333 104.833,76.1667 106.5,77.5C 106.389,78.1174 106.056,78.6174 105.5,79C 106.848,80.5741 107.514,82.4075 107.5,84.5C 105.158,90.6913 104.325,97.0247 105,103.5C 100.295,107.936 94.7955,110.936 88.5,112.5C 81.5407,111.607 76.7074,107.94 74,101.5C 72.4826,95.9198 72.1492,90.2531 73,84.5C 73.2355,82.8807 74.0689,81.8807 75.5,81.5C 74.8748,84.9705 75.8748,87.8038 78.5,90C 79.7839,90.6838 80.9505,90.5171 82,89.5C 83.4833,86.2976 83.8166,82.9643 83,79.5C 81.8904,77.9632 80.3904,77.2965 78.5,77.5C 80.2232,76.193 82.0565,76.193 84,77.5C 85.4411,76.7402 86.9411,76.0736 88.5,75.5C 92.1071,76.8088 95.7738,77.8088 99.5,78.5C 97.568,81.1769 97.068,84.1769 98,87.5C 102.527,91.9334 105.027,90.9334 105.5,84.5C 105.971,80.6425 104.305,78.6425 100.5,78.5C 99.3984,76.9081 100.065,76.0748 102.5,76C 101.748,75.3292 101.414,74.4959 101.5,73.5 Z"/></g>
<g><path style="opacity:1" fill="#094121" d="M 99.5,78.5 C 99.8333,78.5 100.167,78.5 100.5,78.5C 104.305,78.6425 105.971,80.6425 105.5,84.5C 105.027,90.9334 102.527,91.9334 98,87.5C 97.068,84.1769 97.568,81.1769 99.5,78.5 Z"/></g>
<g><path style="opacity:1" fill="#0d4522" d="M 78.5,77.5 C 80.3904,77.2965 81.8904,77.9632 83,79.5C 83.8166,82.9643 83.4833,86.2976 82,89.5C 80.9505,90.5171 79.7839,90.6838 78.5,90C 75.8748,87.8038 74.8748,84.9705 75.5,81.5C 75.7376,79.5956 76.7376,78.2623 78.5,77.5 Z"/></g>
<g><path style="opacity:1" fill="#36a250" d="M 106.5,77.5 C 104.833,76.1667 103.167,74.8333 101.5,73.5C 99.9581,72.8365 98.2914,72.1698 96.5,71.5C 101.429,69.3931 105.095,70.7264 107.5,75.5C 107.137,76.1835 106.804,76.8501 106.5,77.5 Z"/></g>
<g><path style="opacity:1" fill="#3da651" d="M 75.5,70.5 C 77.5273,70.3379 79.5273,70.5045 81.5,71C 81.9574,71.414 82.2907,71.914 82.5,72.5C 78.3304,72.9202 74.6637,74.2535 71.5,76.5C 71.6574,73.6824 72.9908,71.6824 75.5,70.5 Z"/></g>
<g><path style="opacity:1" fill="#b9fc56" d="M 118.5,121.5 C 117.71,120.391 117.21,119.058 117,117.5C 105.468,135.124 90.301,139.291 71.5,130C 69.3063,127.806 67.1396,125.64 65,123.5C 64.8019,125.382 64.3019,127.048 63.5,128.5C 62.8347,121.857 62.3347,115.191 62,108.5C 61.5008,113.155 61.3342,117.821 61.5,122.5C 60.448,122.351 59.448,122.517 58.5,123C 57.8448,124.487 56.8448,125.653 55.5,126.5C 54.8076,125.975 54.3076,125.308 54,124.5C 52.8229,109.213 54.9896,94.5464 60.5,80.5C 58.9593,92.4391 61.1259,103.772 67,114.5C 84.3107,131.799 99.644,130.132 113,109.5C 119.602,92.7134 117.102,77.5468 105.5,64C 89.7914,53.4504 76.6247,55.9504 66,71.5C 65.7216,70.5842 65.2216,69.9175 64.5,69.5C 73.3312,50.2785 86.9978,45.7785 105.5,56C 122.75,75.0781 129.916,97.2448 127,122.5C 125.974,119.307 123.808,117.974 120.5,118.5C 120.665,115.15 120.498,111.817 120,108.5C 119.631,112.863 119.131,117.196 118.5,121.5 Z"/></g>
<g><path style="opacity:1" fill="#1c4c26" d="M 79.5,99.5 C 86.9088,103.144 94.5754,103.477 102.5,100.5C 103.167,100.833 103.833,101.167 104.5,101.5C 96.616,107.551 88.2827,108.051 79.5,103C 78.3157,101.855 78.3157,100.688 79.5,99.5 Z"/></g>
<g><path style="opacity:1" fill="#b1fd4a" d="M 118.5,121.5 C 117.453,130.316 114.453,138.316 109.5,145.5C 107.824,142.992 105.658,140.992 103,139.5C 100.491,140.829 98.6578,142.829 97.5,145.5C 95.9596,143.613 94.2929,141.78 92.5,140C 91.1667,139.333 89.8333,139.333 88.5,140C 87.3206,142.513 85.4873,144.346 83,145.5C 80.702,143.223 78.202,141.223 75.5,139.5C 72.5792,141.297 70.0792,143.63 68,146.5C 66.779,145.728 65.779,144.728 65,143.5C 63.9502,138.552 63.4502,133.552 63.5,128.5C 64.3019,127.048 64.8019,125.382 65,123.5C 67.1396,125.64 69.3063,127.806 71.5,130C 90.301,139.291 105.468,135.124 117,117.5C 117.21,119.058 117.71,120.391 118.5,121.5 Z"/></g>
<g><path style="opacity:1" fill="#f4f3d7" d="M 46.5,100.5 C 48.7224,100.559 49.7224,101.725 49.5,104C 47.7188,119.454 48.3854,134.787 51.5,150C 49.864,154.499 48.0306,154.333 46,149.5C 42.7666,136.009 41.7666,122.342 43,108.5C 43.3683,105.435 44.535,102.768 46.5,100.5 Z"/></g>
<g><path style="opacity:1" fill="#f9f9a4" d="M 61.5,152.5 C 76.5037,152.333 91.5037,152.5 106.5,153C 114.629,154.133 122.629,155.466 130.5,157C 129.737,157.944 128.737,158.444 127.5,158.5C 103.968,154.27 80.3018,153.437 56.5,156C 53.8333,157.667 53.8333,159.333 56.5,161C 60.0569,162.408 63.7235,163.408 67.5,164C 76.4843,164.785 85.4843,165.285 94.5,165.5C 106.206,164.802 117.872,163.969 129.5,163C 104.841,170.273 80.1743,170.273 55.5,163C 52.8975,161.446 51.7308,159.28 52,156.5C 55.0047,154.488 58.1714,153.155 61.5,152.5 Z"/></g>
</svg>
